<svg width="97" height="58" viewBox="0 0 97 58" fill="none" xmlns="http://www.w3.org/2000/svg">
<path d="M4.85505 35.7842V39.7228C4.85505 40.4433 4.90218 41.0196 4.99646 41.4039C5.09073 41.7881 5.23214 42.0763 5.46782 42.3165C5.65637 42.5086 5.89205 42.6527 6.17487 42.7488C6.45768 42.8448 6.78764 42.8928 7.259 42.9409V43.181H0V42.9409C0.424227 42.9409 0.801319 42.8448 1.08414 42.7488C1.36696 42.6527 1.60264 42.5086 1.79118 42.3165C2.02686 42.0763 2.21541 41.7881 2.26255 41.4519C2.35682 41.1157 2.40396 40.5393 2.40396 39.7708V31.6055C2.40396 30.9811 2.35682 30.5008 2.30968 30.1646C2.26255 29.8284 2.16827 29.5402 2.02686 29.3481C1.83832 29.0599 1.60264 28.8197 1.27268 28.6756C0.989864 28.5315 0.565637 28.4355 0.0942728 28.4355H0V28.1953H6.83478C8.01319 28.1953 8.90878 28.2433 9.47441 28.3874C10.0401 28.4835 10.5585 28.7237 11.0299 29.1079C12.1141 29.8764 12.6326 30.9331 12.6326 32.278C12.6326 33.6228 12.0669 34.5835 10.9828 35.2079C10.4171 35.5441 9.7101 35.7362 8.90878 35.7842C8.67309 35.7842 8.01319 35.8323 7.02332 35.8323H4.85505V35.7842ZM4.85505 35.4H5.98632C6.7405 35.4 7.30614 35.352 7.73037 35.2559C8.15459 35.1598 8.48455 34.9677 8.8145 34.6795C9.56869 34.0071 9.94578 33.1425 9.94578 32.0858C9.94578 31.5095 9.8515 30.9331 9.61582 30.4528C9.38014 29.9725 9.09732 29.5402 8.67309 29.252C8.20173 28.8677 7.68323 28.6756 7.02332 28.5796C6.83478 28.5796 6.45768 28.5796 5.84491 28.5796H4.90218V35.4H4.85505Z" fill="#B38D30"/>
<path d="M15.6494 27.7695V35.2624C15.9322 34.9262 16.1208 34.686 16.3565 34.5419C16.545 34.3498 16.7807 34.2057 17.0635 34.0616C17.6291 33.8215 18.2419 33.6774 18.9018 33.6774C19.7974 33.6774 20.5045 33.8695 21.0701 34.2057C21.4943 34.4459 21.7771 34.7821 21.9186 35.1183C22.06 35.5025 22.1542 36.0309 22.1542 36.7514V39.9214V40.7379C22.1542 41.2183 22.2014 41.6025 22.2485 41.8427C22.2956 42.0828 22.4371 42.2749 22.5785 42.419C22.767 42.6112 23.1912 42.7552 23.7097 42.8513V43.0915H18.8547V42.8513C19.2318 42.8033 19.5146 42.7552 19.7031 42.6592C19.8917 42.6112 20.0331 42.4671 20.1745 42.2749C20.3159 42.0828 20.4102 41.8427 20.4573 41.5545C20.5045 41.2183 20.5516 40.786 20.5516 40.1616V36.7033C20.5516 36.175 20.5045 35.7427 20.4102 35.4545C20.3159 35.1663 20.1745 34.8781 19.986 34.638C19.6089 34.2057 19.0904 34.0136 18.3833 34.0136C16.5921 34.0136 15.6966 35.4065 15.6966 38.1923V39.9214V40.7379C15.6966 41.2183 15.7437 41.6025 15.7908 41.8427C15.838 42.0828 15.9794 42.2749 16.1208 42.419C16.3093 42.6112 16.7336 42.7552 17.2521 42.8513V43.0915H12.3027V42.8513C12.727 42.8033 13.0569 42.7072 13.2455 42.6112C13.434 42.5151 13.5754 42.323 13.7168 42.0828C13.8111 41.9387 13.8582 41.6505 13.9054 41.3143C13.9525 40.9781 13.9525 40.4978 13.9525 39.8253V31.3238C13.9525 30.6034 13.9525 30.075 13.9054 29.7388C13.8582 29.4506 13.764 29.1624 13.6697 29.0183C13.5283 28.8262 13.3869 28.6821 13.1983 28.5861C13.0098 28.49 12.7741 28.442 12.4441 28.442V28.2018L15.6494 27.7695Z" fill="#B38D30"/>
<path d="M30.6387 43.3266C30.5445 42.8943 30.4973 42.414 30.4973 41.9817C29.5546 42.8943 28.4705 43.3266 27.1507 43.3266C26.2079 43.3266 25.4537 43.0864 24.8881 42.6541C24.3225 42.2219 24.0396 41.5975 24.0396 40.7809V36.9865V36.1699C24.0396 35.6896 23.9925 35.3054 23.9454 35.0652C23.8982 34.8251 23.7568 34.6329 23.6154 34.4888C23.3797 34.2967 23.0026 34.1526 22.437 34.0566V33.8164H25.7366V39.388C25.7366 40.1565 25.7837 40.7329 25.8308 41.1171C25.878 41.5014 25.9722 41.7896 26.1608 42.0297C26.3022 42.2699 26.5379 42.462 26.8678 42.6061C27.1978 42.7502 27.5277 42.7982 27.9048 42.7982C28.3291 42.7982 28.7062 42.7022 29.0832 42.5581C29.4603 42.414 29.7432 42.1738 29.9317 41.8856C30.1674 41.5975 30.3088 41.2612 30.3559 40.925C30.4031 40.5408 30.4502 39.9644 30.4502 39.0998V36.9865V36.1699C30.4502 35.6896 30.4031 35.3054 30.3559 35.0652C30.3088 34.8251 30.1674 34.6329 30.026 34.4888C29.8374 34.2967 29.4132 34.1526 28.8476 34.0566V33.8164H32.1471V39.7242C32.1471 40.4927 32.1471 41.0211 32.1942 41.3093C32.2414 41.5975 32.3357 41.8376 32.4299 42.0297C32.5713 42.2219 32.7127 42.366 32.9013 42.462C33.0898 42.5581 33.3255 42.6061 33.6555 42.6541V42.8943L30.6387 43.3266Z" fill="#B38D30"/>
<path d="M43.2242 35.068H51.1902V31.5618C51.1902 30.7933 51.1431 30.2649 51.0488 29.8807C50.9545 29.5445 50.8131 29.2082 50.5774 29.0161C50.3889 28.824 50.1532 28.6319 49.8704 28.5358C49.5876 28.4397 49.2576 28.3917 48.8334 28.3437V28.1035H55.9981V28.3437C55.5739 28.3437 55.2439 28.4397 54.9611 28.5358C54.6783 28.6319 54.4426 28.776 54.2541 29.0161C54.0184 29.2563 53.877 29.5444 53.7827 29.9287C53.6884 30.3129 53.6413 30.8413 53.6413 31.5618V39.631C53.6413 40.3515 53.6884 40.9278 53.7827 41.264C53.877 41.6003 54.0184 41.9365 54.2541 42.1766C54.4426 42.3688 54.6783 42.5129 54.9611 42.6089C55.2439 42.705 55.5739 42.753 55.9981 42.801V43.0412H48.8334V42.801C49.2576 42.801 49.6347 42.705 49.8704 42.6089C50.1532 42.5129 50.3889 42.3688 50.5774 42.1766C50.8131 41.9365 50.9545 41.6483 51.0488 41.3121C51.1431 40.9759 51.1902 40.3995 51.1902 39.631V35.5964H43.2242V39.631C43.2242 40.3515 43.2713 40.9278 43.3656 41.3121C43.4599 41.6963 43.6013 41.9845 43.8369 42.2247C44.0255 42.4168 44.2612 42.5609 44.544 42.657C44.8268 42.753 45.1568 42.801 45.581 42.8491V43.0892H38.4163V42.8491C38.8405 42.8491 39.2176 42.753 39.4533 42.657C39.7361 42.5609 39.9718 42.4168 40.1603 42.2247C40.396 41.9845 40.5374 41.6963 40.6317 41.3601C40.7259 41.0239 40.7731 40.4475 40.7731 39.679V31.5618C40.7731 30.7933 40.7259 30.2649 40.6317 29.8807C40.5374 29.5445 40.396 29.2082 40.1603 29.0161C39.9718 28.824 39.7361 28.6319 39.4533 28.5358C39.1704 28.4397 38.8405 28.3917 38.4163 28.3437V28.1035H45.581V28.3437C45.1568 28.3437 44.8268 28.4397 44.544 28.5358C44.2612 28.6319 44.0255 28.776 43.8369 29.0161C43.6013 29.2563 43.4599 29.5444 43.3656 29.9287C43.2713 30.3129 43.2242 30.8413 43.2242 31.5618V35.068Z" fill="#B38D30"/>
<path d="M62.7385 43.2801C62.6442 42.8478 62.5971 42.3675 62.5971 41.9352C61.6543 42.8478 60.5702 43.2801 59.2504 43.2801C58.3077 43.2801 57.5535 43.0399 56.9878 42.6076C56.4222 42.1753 56.1394 41.5509 56.1394 40.7344V36.9399V36.1234C56.1394 35.6431 56.0922 35.2589 56.0451 35.0187C55.998 34.7785 55.8566 34.5864 55.7152 34.4423C55.4795 34.2502 55.1024 34.1061 54.5367 34.01V33.7699H57.8363V39.2935C57.8363 40.062 57.8834 40.6383 57.9306 41.0226C57.9777 41.4068 58.072 41.695 58.2605 41.9352C58.4019 42.1753 58.6376 42.3675 58.9676 42.5116C59.2504 42.6557 59.6275 42.7037 60.0046 42.7037C60.4288 42.7037 60.8059 42.6076 61.183 42.4635C61.5601 42.3194 61.8429 42.0793 62.0314 41.7911C62.2671 41.5029 62.4085 41.1667 62.4557 40.8305C62.5499 40.4462 62.5499 39.8698 62.5499 39.0053V36.8439V36.0274C62.5499 35.547 62.5028 35.1628 62.4557 34.9226C62.4085 34.6825 62.2671 34.4904 62.1257 34.3463C61.9372 34.1541 61.5129 34.01 60.9473 33.914V33.6738H64.2468V39.5817C64.2468 40.3502 64.2468 40.8785 64.294 41.1667C64.3411 41.4549 64.4354 41.695 64.5297 41.8872C64.6711 42.0793 64.8125 42.2234 65.001 42.3194C65.1896 42.4155 65.4253 42.4635 65.7552 42.5116V42.7517L62.7385 43.2801Z" fill="#B38D30"/>
<path d="M69.1965 33.6738C69.2908 34.1061 69.3379 34.4904 69.3379 34.8746V35.0667C70.2807 34.1541 71.3648 33.7219 72.6375 33.7219C73.5802 33.7219 74.3815 33.962 74.9472 34.3943C75.5128 34.8266 75.7956 35.451 75.7956 36.2195V40.8305C75.7956 41.3108 75.8427 41.695 75.8899 41.9352C75.937 42.1753 76.0784 42.3675 76.2198 42.5116C76.4084 42.7037 76.8326 42.8478 77.3511 42.9438V43.184H72.4018V42.9438C72.826 42.8958 73.156 42.7997 73.3445 42.7037C73.5331 42.6076 73.6745 42.4155 73.8159 42.1753C73.9102 42.0312 73.9573 41.7431 74.0044 41.4068C74.0516 41.0706 74.0516 40.5903 74.0516 39.9659V37.6604C74.0516 36.8439 74.0044 36.2675 73.9573 35.9313C73.9102 35.547 73.8159 35.2589 73.6273 35.0187C73.4388 34.7785 73.2031 34.5864 72.8732 34.4423C72.5432 34.2982 72.2132 34.2502 71.8362 34.2502C71.4119 34.2502 71.0348 34.3463 70.6577 34.4904C70.2807 34.6345 69.9978 34.8746 69.8093 35.1628C69.5736 35.451 69.4322 35.7872 69.3851 36.1714C69.3379 36.5557 69.2908 37.1321 69.2908 37.9966V40.158V40.9746C69.2908 41.4549 69.3379 41.8391 69.3851 42.0793C69.4322 42.3194 69.5736 42.5116 69.715 42.6557C69.9036 42.8478 70.3278 42.9919 70.8463 43.0879V43.3281H65.897V43.0879C66.3212 43.0399 66.6512 42.9438 66.8397 42.8478C67.0282 42.7517 67.1697 42.5596 67.3111 42.3194C67.4053 42.1753 67.4525 41.8872 67.4996 41.5509C67.5467 41.2147 67.5467 40.7344 67.5467 40.11V37.4203C67.5467 36.6518 67.5467 36.1714 67.4996 35.8352C67.4525 35.547 67.3582 35.3069 67.2639 35.1148C67.1225 34.9226 66.9811 34.7785 66.7926 34.6825C66.604 34.5864 66.3683 34.5384 66.0384 34.4904V34.2502L69.1965 33.6738Z" fill="#B38D30"/>
<path d="M79.4247 45.8276L79.2362 45.8756C79.0948 45.6835 79.0005 45.4914 78.8591 45.4433C78.7177 45.3953 78.6234 45.3953 78.4349 45.3953C78.1049 45.4433 77.9635 45.5394 77.775 45.7796C77.5864 46.0197 77.3979 46.404 77.3507 46.8362C77.2565 47.6047 77.6336 48.3732 78.1049 48.8535C78.6234 49.3819 79.519 49.8142 80.5089 49.8622C81.4987 49.9102 82.2058 49.622 82.8186 49.1898C83.4313 48.7095 83.9498 47.7008 83.9498 46.2599C83.9498 45.7315 83.9027 44.963 83.3842 44.2906C83.0071 43.7622 82.1586 43.1378 81.4045 43.0418L79.6133 42.8016C78.8591 42.8016 78.3406 42.6095 77.8692 42.2733C77.3979 41.9371 77.1622 41.5048 77.1622 41.0245C77.1622 40.4961 77.3979 40.1119 77.9164 39.7757C78.1521 39.6316 78.6234 39.4875 79.3305 39.2954C78.6706 39.0072 78.1521 38.6229 77.8221 38.1426C77.445 37.6623 77.2565 37.1339 77.2565 36.5576C77.2565 35.8371 77.5393 35.1647 78.1049 34.5883C78.4349 34.2521 78.812 33.9639 79.2833 33.7718C79.7547 33.5796 80.1789 33.4836 80.6974 33.4836C81.4045 33.4836 82.1586 33.7237 82.9128 34.204C83.2899 33.9159 83.5727 33.7237 83.8556 33.6277C84.1384 33.5316 84.4683 33.4355 84.7983 33.4355C85.1754 33.4355 85.4582 33.5316 85.6939 33.6757C85.9767 33.8678 86.1181 34.108 86.1181 34.3962C86.1181 34.5403 86.071 34.6844 85.9767 34.8285C85.8824 34.9245 85.741 35.0206 85.5996 35.0206C85.3639 35.0206 85.1282 34.8765 84.9397 34.6363L84.6569 34.3001C84.5155 34.108 84.3269 34.06 84.0441 34.06C83.7613 34.06 83.4785 34.204 83.1485 34.4442C83.7613 35.1647 84.0912 35.9332 84.0912 36.6536C84.0912 37.6143 83.667 38.3828 82.8186 38.9111C82.3943 39.1993 81.923 39.3914 81.4045 39.4875C81.2631 39.4875 80.7446 39.5835 79.9432 39.6316C78.812 39.6796 78.2935 39.9678 78.2463 40.4961C78.1992 40.8323 78.5291 41.2646 79.7076 41.2166L80.2261 41.2646C81.0745 41.3607 81.4987 41.2646 82.3472 41.5048C83.1014 41.6969 83.7613 42.1292 84.0912 42.4174C85.1754 43.33 85.4582 44.8189 85.4111 45.7315C85.3639 46.6921 85.1754 48.037 84.1384 49.0457C83.3842 49.8142 82.2058 50.2465 80.6974 50.2465C79.0476 50.2465 77.9635 49.7661 77.1622 48.7095C76.738 48.1331 76.4551 47.3166 76.5494 46.5481C76.6437 45.8276 76.7851 45.4914 77.2093 44.963C77.5393 44.6268 77.9635 44.4347 78.2935 44.4347C78.6234 44.4347 78.8591 44.5307 79.0948 44.7229C79.3305 44.915 79.4247 45.1551 79.4247 45.4914V45.8276ZM78.9534 36.7497C78.9534 37.5182 79.1419 38.1906 79.4719 38.6709C79.8018 39.1513 80.2732 39.3914 80.7917 39.3914C81.3102 39.3914 81.7344 39.1513 82.0644 38.6709C82.3472 38.1906 82.5357 37.5182 82.5357 36.6056C82.5357 35.693 82.3472 34.9725 81.9701 34.4442C81.6873 34.06 81.3102 33.8678 80.886 33.8678C80.3203 33.8678 79.8961 34.108 79.5661 34.6363C79.3776 34.8765 79.2833 35.2127 79.1891 35.5969C79.0005 35.9812 78.9534 36.3654 78.9534 36.7497Z" fill="#B38D30"/>
<path d="M13.6697 49.1388L14.2353 49.0908C14.2825 49.3309 14.3296 49.475 14.4239 49.6191C14.5181 49.7632 14.6595 49.8593 14.8481 49.9553C15.0366 50.0514 15.2723 50.0994 15.508 50.0994C15.7437 50.0994 15.9322 50.0514 16.0736 50.0034C16.2622 49.9553 16.3565 49.8593 16.4507 49.7152C16.545 49.6191 16.5921 49.475 16.5921 49.3309C16.5921 49.1868 16.545 49.0908 16.4507 48.9467C16.3565 48.8506 16.2622 48.7546 16.0736 48.7065C15.9794 48.6585 15.6965 48.6105 15.3195 48.4664C14.8952 48.3703 14.6595 48.2742 14.471 48.1782C14.2825 48.0821 14.0939 47.938 13.9996 47.7459C13.9054 47.6018 13.8582 47.4097 13.8582 47.1695C13.8582 46.9294 13.9054 46.7373 14.0468 46.5451C14.1882 46.353 14.3767 46.2089 14.6124 46.1128C14.8481 46.0168 15.1309 45.9688 15.4137 45.9688C15.7437 45.9688 16.0265 46.0168 16.2622 46.1128C16.4979 46.2089 16.6864 46.353 16.8278 46.5932C16.9692 46.7853 17.0164 47.0254 17.0635 47.3136L16.4979 47.4097C16.4507 47.1215 16.3565 46.9294 16.215 46.7853C16.0265 46.6412 15.7437 46.5932 15.4137 46.5932C15.0838 46.5932 14.801 46.6412 14.6595 46.7853C14.5181 46.9294 14.4239 47.0735 14.4239 47.2656C14.4239 47.4097 14.471 47.5538 14.6124 47.6498C14.7067 47.7459 15.0366 47.842 15.4609 47.9861C15.9322 48.0821 16.2622 48.1782 16.4507 48.2742C16.6864 48.3703 16.875 48.5624 17.0164 48.7065C17.1578 48.8987 17.2049 49.0908 17.2049 49.3309C17.2049 49.5711 17.1578 49.8112 17.0164 50.0034C16.875 50.1955 16.6864 50.3876 16.4507 50.4837C16.215 50.5797 15.9322 50.6758 15.6023 50.6758C15.2252 50.6758 14.8952 50.6278 14.6124 50.4837C14.3296 50.3876 14.141 50.1955 13.9996 49.9553C13.764 49.7152 13.7168 49.475 13.6697 49.1388Z" fill="#B38D30"/>
<path d="M19.6564 50.5821V46.1152H22.8145V46.6436H20.222V48.0365H22.6731V48.5648H20.222V50.0538H22.9088V50.5821H19.6564Z" fill="#B38D30"/>
<path d="M28.5177 49.0404L29.0833 49.1845C28.9419 49.6648 28.7534 50.0491 28.4234 50.2892C28.0935 50.5294 27.7164 50.6735 27.245 50.6735C26.7736 50.6735 26.3966 50.5774 26.1137 50.3853C25.8309 50.1932 25.5952 49.905 25.4538 49.5207C25.3124 49.1365 25.2181 48.7522 25.2181 48.32C25.2181 47.8397 25.3124 47.4554 25.501 47.1192C25.6895 46.783 25.9252 46.4948 26.2551 46.3507C26.5851 46.1586 26.9151 46.0625 27.2921 46.0625C27.7164 46.0625 28.0935 46.1586 28.3763 46.3987C28.6591 46.6389 28.8948 46.9271 28.9891 47.3593L28.4234 47.5034C28.3291 47.1672 28.1877 46.9271 27.9992 46.783C27.8106 46.6389 27.575 46.5428 27.2921 46.5428C26.9622 46.5428 26.6794 46.6389 26.4437 46.783C26.208 46.9271 26.0666 47.1672 25.9723 47.4554C25.878 47.7436 25.8309 48.0318 25.8309 48.32C25.8309 48.7042 25.878 49.0404 25.9723 49.3286C26.0666 49.6168 26.2551 49.8089 26.4908 49.953C26.7265 50.0971 26.9622 50.1451 27.245 50.1451C27.575 50.1451 27.8578 50.0491 28.0463 49.857C28.3291 49.6648 28.4706 49.3766 28.5177 49.0404Z" fill="#B38D30"/>
<path d="M34.4095 46.1152H34.9751V48.7089C34.9751 49.1412 34.928 49.5254 34.8337 49.7656C34.7395 50.0058 34.5509 50.2459 34.3152 50.39C34.0324 50.5341 33.7025 50.6302 33.2782 50.6302C32.854 50.6302 32.524 50.5821 32.2884 50.438C32.0055 50.2939 31.8641 50.1018 31.7227 49.8136C31.6285 49.5254 31.5342 49.1892 31.5342 48.7089V46.1152H32.0998V48.7089C32.0998 49.0932 32.147 49.3814 32.1941 49.5735C32.2412 49.7656 32.3826 49.9097 32.5712 50.0058C32.7597 50.1018 32.9483 50.1499 33.184 50.1499C33.6082 50.1499 33.891 50.0538 34.0795 49.8617C34.2681 49.6695 34.3624 49.2853 34.3624 48.7089V46.1152H34.4095Z" fill="#B38D30"/>
<path d="M37.615 50.5821V46.1152H39.5947C39.9718 46.1152 40.3018 46.1633 40.4903 46.2113C40.6789 46.3074 40.8674 46.4515 40.9617 46.6436C41.1031 46.8357 41.1502 47.0759 41.1502 47.316C41.1502 47.6522 41.0559 47.8924 40.8674 48.1325C40.6789 48.3727 40.3489 48.4688 39.9247 48.5648C40.0661 48.6609 40.2075 48.7089 40.2546 48.805C40.4432 48.9491 40.5846 49.1412 40.726 49.3814L41.4802 50.5821H40.7731L40.2075 49.6695C40.0189 49.3814 39.8775 49.1892 39.7833 49.0451C39.689 48.901 39.5947 48.805 39.5004 48.7569C39.4062 48.7089 39.3119 48.6609 39.2176 48.6609C39.1705 48.6609 39.0291 48.6609 38.8877 48.6609H38.2278V50.6302H37.615V50.5821ZM38.2278 48.0845H39.4533C39.7361 48.0845 39.9247 48.0365 40.0661 47.9885C40.2075 47.9404 40.3489 47.8444 40.396 47.7003C40.4903 47.5562 40.4903 47.4601 40.4903 47.316C40.4903 47.1239 40.396 46.9318 40.2546 46.7877C40.1132 46.6436 39.8775 46.5955 39.5476 46.5955H38.1806V48.0845H38.2278Z" fill="#B38D30"/>
<path d="M44.4019 46.1152H43.8363V50.5821H44.4019V46.1152Z" fill="#B38D30"/>
<path d="M48.1263 50.5821V46.6436H46.665V46.1152H50.1531V46.6436H48.6919V50.5821H48.1263Z" fill="#B38D30"/>
<path d="M52.9812 46.1152H52.4155V50.5821H52.9812V46.1152Z" fill="#B38D30"/>
<path d="M55.7156 50.5821V46.1152H58.8737V46.6436H56.3284V48.0365H58.7323V48.5648H56.3284V50.0538H59.0151V50.5821H55.7156Z" fill="#B38D30"/>
<path d="M61.2773 49.1388L61.843 49.0908C61.8901 49.3309 61.9373 49.475 62.0315 49.6191C62.1258 49.7632 62.2672 49.8593 62.4558 49.9553C62.6443 50.0514 62.88 50.0994 63.1157 50.0994C63.3513 50.0994 63.5399 50.0514 63.6813 50.0034C63.8698 49.9553 63.9641 49.8593 64.0584 49.7152C64.1527 49.6191 64.1998 49.475 64.1998 49.3309C64.1998 49.1868 64.1527 49.0908 64.0584 48.9467C63.9641 48.8506 63.8698 48.7546 63.6813 48.7065C63.587 48.6585 63.3042 48.6105 62.9271 48.4664C62.5029 48.3703 62.2672 48.2742 62.0787 48.1782C61.8901 48.0821 61.7016 47.938 61.6073 47.7459C61.513 47.6018 61.4659 47.4097 61.4659 47.1695C61.4659 46.9294 61.513 46.7373 61.6544 46.5451C61.7958 46.353 61.9844 46.2089 62.2201 46.1128C62.4558 46.0168 62.7386 45.9688 63.0214 45.9688C63.3513 45.9688 63.6342 46.0168 63.8698 46.1128C64.1055 46.2089 64.2941 46.353 64.4355 46.5932C64.5769 46.7853 64.624 47.0254 64.6712 47.3136L64.1055 47.3617C64.0584 47.0735 63.9641 46.8813 63.8227 46.7373C63.6342 46.5932 63.3985 46.5451 63.0685 46.5451C62.7386 46.5451 62.4558 46.5932 62.3143 46.7373C62.1729 46.8813 62.0787 47.0254 62.0787 47.2176C62.0787 47.3617 62.1258 47.5057 62.2672 47.6018C62.3615 47.6979 62.6914 47.7939 63.1157 47.938C63.587 48.0341 63.917 48.1302 64.1055 48.2262C64.3412 48.3223 64.5298 48.5144 64.6712 48.6585C64.8126 48.8506 64.8597 49.0427 64.8597 49.2829C64.8597 49.5231 64.8126 49.7632 64.6712 49.9553C64.5298 50.1475 64.3412 50.3396 64.1055 50.4356C63.8698 50.5317 63.587 50.6278 63.2571 50.6278C62.88 50.6278 62.55 50.5797 62.2672 50.4356C61.9844 50.3396 61.7958 50.1475 61.6544 49.9073C61.3716 49.7152 61.2773 49.475 61.2773 49.1388Z" fill="#B38D30"/>
<path d="M42.1867 14.6995C42.1867 10.6649 39.1229 7.35072 35.2577 7.06253C34.9277 3.12398 31.6753 0.00195312 27.7158 0.00195312C23.7564 0.00195312 20.504 3.12398 20.2212 7.06253C16.356 7.35072 13.2921 10.6649 13.2921 14.6995C13.2921 18.7341 16.356 22.0482 20.2212 22.3364C20.504 26.275 23.7564 29.397 27.7158 29.397C31.6753 29.397 34.9277 26.275 35.2105 22.3364C39.1229 22.0482 42.1867 18.7341 42.1867 14.6995ZM27.7158 11.7216C26.9617 9.89637 25.5476 8.45543 23.7564 7.68694C25.5476 6.91844 26.9617 5.4775 27.7158 3.65232C28.47 5.4775 29.8841 6.91844 31.6753 7.68694C29.9313 8.45543 28.5172 9.89637 27.7158 11.7216ZM34.0321 8.31134C33.7493 11.3373 31.3454 13.7389 28.3758 14.0751C28.6586 11.0491 31.0625 8.59953 34.0321 8.31134ZM27.1031 14.0751C24.1335 13.7869 21.7767 11.3373 21.4467 8.31134C24.4163 8.59953 26.8203 11.0491 27.1031 14.0751ZM24.7934 14.6995C23.0022 15.468 21.5881 16.9089 20.8339 18.7341C20.0798 16.9089 18.6657 15.468 16.8745 14.6995C18.6657 13.931 20.0798 12.49 20.8339 10.6649C21.5881 12.49 23.0022 13.931 24.7934 14.6995ZM27.1031 15.3719C26.8203 18.3979 24.4163 20.7994 21.4467 21.1357C21.7295 18.0617 24.1335 15.6601 27.1031 15.3719ZM27.7158 17.7254C28.47 19.5506 29.8841 20.9916 31.6753 21.7601C29.8841 22.5286 28.47 23.9695 27.7158 25.7947C26.9617 23.9695 25.5476 22.5286 23.7564 21.7601C25.5476 20.9916 26.9617 19.5506 27.7158 17.7254ZM28.3758 15.3719C31.3454 15.6601 33.7022 18.1097 34.0321 21.1357C31.0625 20.7994 28.6586 18.3979 28.3758 15.3719ZM30.6854 14.6995C32.4766 13.931 33.8907 12.49 34.6449 10.6649C35.3991 12.49 36.8132 13.931 38.6044 14.6995C36.8132 15.468 35.3991 16.9089 34.6449 18.7341C33.8907 16.9569 32.4766 15.468 30.6854 14.6995ZM40.914 14.0751C37.9444 13.7869 35.5876 11.3373 35.2577 8.31134C38.2744 8.59953 40.6312 11.0491 40.914 14.0751ZM34.0321 7.0145C31.0625 6.72631 28.7057 4.27672 28.3758 1.25076C31.3454 1.58698 33.7022 3.98854 34.0321 7.0145ZM27.1031 1.25076C26.8203 4.27672 24.4163 6.67828 21.4467 7.0145C21.7295 3.98854 24.1335 1.58698 27.1031 1.25076ZM20.174 8.31134C19.8912 11.3373 17.4873 13.7389 14.5177 14.0751C14.8476 11.0491 17.2044 8.59953 20.174 8.31134ZM14.5177 15.3719C17.4873 15.6601 19.8441 18.1097 20.174 21.1357C17.2044 20.7994 14.8476 18.3979 14.5177 15.3719ZM21.4467 22.3845C24.4163 22.6726 26.7731 25.1222 27.1031 28.1482C24.1335 27.86 21.7295 25.4585 21.4467 22.3845ZM28.3758 28.1482C28.6586 25.1222 31.0625 22.7207 34.0321 22.3845C33.7022 25.4585 31.3454 27.86 28.3758 28.1482ZM35.3048 21.1357C35.5876 18.1097 37.9916 15.7081 40.9612 15.3719C40.6312 18.3979 38.2744 20.7994 35.3048 21.1357Z" fill="#B38D30"/>
</svg>
