<svg width="79" height="94" viewBox="0 0 79 94" fill="none" xmlns="http://www.w3.org/2000/svg">
<path d="M5.03482 6.59833L62.4617 6.64593C64.6615 6.64776 66.4584 8.46518 66.4574 10.7231L66.4279 87.4421C66.4271 89.6999 64.6289 91.5143 62.429 91.5125L5.00222 91.4649C2.80245 91.4631 1.00551 89.6458 1.00637 87.3879L1.03584 10.6687C1.03671 8.41096 2.83489 6.59651 5.03482 6.59833Z" fill="#41A143" stroke="#18550E"/>
<path d="M45.4232 10.7135L22.0853 10.6943C20.8926 10.6933 19.9121 9.70734 19.9126 8.47457L19.9145 3.7302C19.9149 2.49744 20.8962 1.51306 22.0888 1.51404L45.4268 1.53325C46.6195 1.53423 47.5999 2.52022 47.5994 3.75299L47.5976 8.49736C47.5971 9.73013 46.6159 10.7145 45.4232 10.7135Z" fill="#F1B823" stroke="#A37910"/>
<path d="M63.3156 92.7362C71.2168 92.7417 77.596 86.2358 77.5998 78.2408C77.6035 70.2458 71.2303 63.731 63.3292 63.7254C55.4281 63.7199 49.0488 70.2259 49.0451 78.2209C49.0414 86.2159 55.4145 92.7307 63.3156 92.7362Z" fill="#F1B823"/>
<path d="M63.3156 92.7362C71.2168 92.7417 77.596 86.2358 77.5998 78.2408C77.6035 70.2458 71.2303 63.731 63.3292 63.7254C55.4281 63.7199 49.0488 70.2259 49.0451 78.2209C49.0414 86.2159 55.4145 92.7307 63.3156 92.7362Z" stroke="#18550E" stroke-width="2"/>
<path d="M63.3156 92.7362C71.2168 92.7417 77.596 86.2358 77.5998 78.2408C77.6035 70.2458 71.2303 63.731 63.3292 63.7254C55.4281 63.7199 49.0488 70.2259 49.0451 78.2209C49.0414 86.2159 55.4145 92.7307 63.3156 92.7362Z" stroke="white" stroke-width="2"/>
<path d="M41.7838 69.4379H11.868C11.1221 69.4379 10.5177 68.823 10.5177 68.0642C10.5177 67.3053 11.1221 66.6904 11.868 66.6904H41.7838C42.5297 66.6904 43.1341 67.3053 43.1341 68.0642C43.1341 68.823 42.5297 69.4379 41.7838 69.4379Z" fill="white"/>
<path d="M55.5975 47.6334H11.868C11.1221 47.6334 10.5177 47.0185 10.5177 46.2596C10.5177 45.5008 11.1221 44.8859 11.868 44.8859H55.5975C56.3434 44.8859 56.9478 45.5008 56.9478 46.2596C56.9478 47.0185 56.3432 47.6334 55.5975 47.6334Z" fill="white"/>
<path d="M55.5975 58.5357H11.868C11.1221 58.5357 10.5177 57.9208 10.5177 57.162C10.5177 56.4031 11.1221 55.7882 11.868 55.7882H55.5975C56.3434 55.7882 56.9478 56.4031 56.9478 57.162C56.9478 57.9208 56.3432 58.5357 55.5975 58.5357Z" fill="white"/>
<path d="M33.7326 21.9687H11.868C11.1221 21.9687 10.5177 21.3538 10.5177 20.5949C10.5177 19.8361 11.1221 19.2212 11.868 19.2212H33.7326C34.4785 19.2212 35.0829 19.8361 35.0829 20.5949C35.0829 21.3538 34.4785 21.9687 33.7326 21.9687Z" fill="white"/>
<path d="M55.5975 36.7311H11.868C11.1221 36.7311 10.5177 36.1162 10.5177 35.3574C10.5177 34.5985 11.1221 33.9836 11.868 33.9836H55.5975C56.3434 33.9836 56.9478 34.5985 56.9478 35.3574C56.9478 36.1162 56.3432 36.7311 55.5975 36.7311Z" fill="white"/>
<path d="M64.853 78.0645L69.1331 73.7098C69.5175 73.3185 69.5175 72.6844 69.1331 72.2933C68.7485 71.9022 68.1253 71.9022 67.7408 72.2933L63.4607 76.648L59.1806 72.2933C58.796 71.9022 58.1728 71.9022 57.7883 72.2933C57.4039 72.6846 57.4039 73.3186 57.7883 73.7098L62.0684 78.0645L57.7883 82.4192C57.4039 82.8105 57.4039 83.4446 57.7883 83.8357C57.9806 84.0312 58.2327 84.129 58.4845 84.129C58.7364 84.129 58.9884 84.0312 59.1807 83.8357L63.4608 79.481L67.7409 83.8357C67.9332 84.0312 68.1852 84.129 68.4371 84.129C68.689 84.129 68.941 84.0312 69.1333 83.8357C69.5178 83.4444 69.5178 82.8104 69.1333 82.4192L64.853 78.0645Z" fill="white"/>
</svg>
