<svg width="117" height="117" viewBox="0 0 117 117" fill="none" xmlns="http://www.w3.org/2000/svg">
<path d="M48.7125 57.1821H68.2893C69.0142 57.1821 69.6018 57.7697 69.6018 58.4946V107.432C69.6018 108.157 69.0142 108.745 68.2893 108.745H48.7125C47.9876 108.745 47.4 108.157 47.4 107.432V58.4946C47.4 57.7697 47.9876 57.1821 48.7125 57.1821Z" fill="#41A143" stroke="#18550E"/>
<path d="M68.892 32.1173L69.0817 31.9356L77.5316 23.841L77.5318 23.8407C77.7089 23.6714 77.835 23.4559 77.8959 23.2185C77.9568 22.9812 77.9501 22.7316 77.8765 22.4979C77.8029 22.2642 77.6653 22.0558 77.4794 21.8962C77.2934 21.7367 77.0665 21.6323 76.8244 21.595L76.8243 21.595L65.2587 19.8115L64.999 19.7715L64.8847 19.5348L59.7952 8.99695L59.7945 8.99548C59.6885 8.77421 59.5227 8.58708 59.3157 8.45531C59.1094 8.32395 58.8705 8.25284 58.626 8.25H58.6142C58.3712 8.25001 58.1329 8.3175 57.9259 8.44496C57.719 8.57241 57.5515 8.75483 57.4421 8.97188L57.4421 8.97203L52.1731 19.4193L52.0548 19.654L51.7943 19.6895L40.1946 21.2736L68.892 32.1173ZM68.892 32.1173L68.934 32.3765M68.892 32.1173L68.934 32.3765M68.934 32.3765L70.8027 43.9276L70.8028 43.9282C70.8422 44.17 70.8132 44.418 70.719 44.6441C70.6248 44.8702 70.4692 45.0655 70.2698 45.2078C70.0704 45.3501 69.8352 45.4338 69.5908 45.4493C69.3463 45.4649 69.1023 45.4117 68.8865 45.2959L58.5865 39.7534L58.3548 39.6288L58.1208 39.7492L47.7116 45.1051L47.7108 45.1055C47.493 45.2181 47.248 45.2673 47.0036 45.2478C46.7592 45.2282 46.5251 45.1406 46.3279 44.9948L46.0307 45.3968L46.3279 44.9948C46.1308 44.849 45.9784 44.6509 45.8881 44.423C45.7978 44.195 45.7731 43.9463 45.8169 43.7051L45.817 43.7046L47.8977 32.188L47.9445 31.9292M68.934 32.3765L47.9445 31.9292M47.9445 31.9292L47.7577 31.7441M47.9445 31.9292L47.7577 31.7441M47.7577 31.7441L39.4478 23.5049C39.4477 23.5048 39.4477 23.5047 39.4476 23.5046C39.2741 23.3321 39.1523 23.1146 39.0959 22.8767C39.0395 22.6385 39.0507 22.3894 39.1284 22.1573L38.6566 21.9994M47.7577 31.7441L38.6566 21.9994M38.6566 21.9994L39.1284 22.1573C39.2061 21.9253 39.3471 21.7196 39.5355 21.5634C39.7238 21.4073 39.952 21.307 40.1943 21.2737L38.6566 21.9994Z" fill="#F1B823" stroke="#A37910"/>
<path d="M8.25 107.438V92.9375C8.25 92.5894 8.38828 92.2556 8.63442 92.0094C8.88056 91.7633 9.2144 91.625 9.5625 91.625H23.2V108.75H9.5625C9.2144 108.75 8.88056 108.612 8.63442 108.366C8.38828 108.119 8.25 107.786 8.25 107.438Z" fill="#41A143" stroke="#18550E"/>
<path d="M93.8 108.75V91.625H107.438C107.786 91.625 108.119 91.7633 108.366 92.0094C108.612 92.2556 108.75 92.5894 108.75 92.9375V107.438C108.75 107.786 108.612 108.119 108.366 108.366C108.119 108.612 107.786 108.75 107.438 108.75H93.8Z" fill="#41A143" stroke="#18550E"/>
<path d="M27.825 107.438V76.625C27.825 76.2769 27.9633 75.9431 28.2094 75.6969C28.4556 75.4508 28.7894 75.3125 29.1375 75.3125H42.775V108.75H29.1375C28.7894 108.75 28.4556 108.612 28.2094 108.366C27.9633 108.119 27.825 107.786 27.825 107.438Z" fill="#41A143" stroke="#18550E"/>
<path d="M74.225 108.75V75.3125H87.8625C88.2106 75.3125 88.5444 75.4508 88.7906 75.6969C89.0367 75.9431 89.175 76.2769 89.175 76.625V107.438C89.175 107.786 89.0367 108.119 88.7906 108.366C88.5444 108.612 88.2106 108.75 87.8625 108.75H74.225Z" fill="#41A143" stroke="#18550E"/>
</svg>
