<svg width="117" height="117" viewBox="0 0 117 117" fill="none" xmlns="http://www.w3.org/2000/svg">
<path d="M48.7124 57.1821H68.2892C69.0141 57.1821 69.6017 57.7697 69.6017 58.4946V107.432C69.6017 108.157 69.0141 108.745 68.2892 108.745H48.7124C47.9875 108.745 47.3999 108.157 47.3999 107.432V58.4946C47.3999 57.7697 47.9875 57.1821 48.7124 57.1821Z" fill="#41A143" stroke="#18550E"/>
<path d="M66.326 12.1532H66.726V11.7532C66.726 10.9584 67.1738 10.1177 67.8586 9.46171C68.5447 8.80437 69.3984 8.4 70.1172 8.4H77.2994V24.8895C77.2994 25.6963 76.8878 26.5375 76.2333 27.1856C75.579 27.8333 74.7274 28.2427 73.9083 28.2427H69.738H69.4108L69.346 28.5635C68.9791 30.3793 68.2056 32.0319 66.8363 33.2986C65.4682 34.5642 63.4716 35.4759 60.6012 35.7509L60.2393 35.7856V36.1491V40.0525V40.3963L60.5793 40.4479C63.2999 40.8609 64.6157 42.1566 65.2667 43.3123C65.5968 43.8985 65.7622 44.4605 65.8449 44.8755C65.8636 44.9693 65.8779 45.0554 65.889 45.1322H51.5985C51.6096 45.0554 51.624 44.9693 51.6426 44.8755C51.7253 44.4605 51.8907 43.8985 52.2208 43.3123C52.8718 42.1566 54.1876 40.8609 56.9082 40.4479L57.2482 40.3963V40.0525V36.1491V35.7856L56.8863 35.7509C54.0159 35.4759 52.0193 34.5642 50.6512 33.2986C49.2819 32.0319 48.5084 30.3793 48.1415 28.5635L48.0767 28.2427H47.7495H43.5792C42.7601 28.2427 41.9085 27.8333 41.2542 27.1856C40.5997 26.5375 40.1881 25.6963 40.1881 24.8895V8.4H47.3704C48.0891 8.4 48.9428 8.80437 49.629 9.46171C50.3137 10.1177 50.7615 10.9584 50.7615 11.7532V12.1532H51.1615H66.326ZM47.3704 25.2895H47.7704V24.8895V11.7532V11.3532H47.3704H43.5792H43.1792V11.7532V24.8895V25.2895H43.5792H47.3704ZM73.9083 25.2895H74.3083V24.8895V11.7532V11.3532H73.9083H70.1172H69.7172V11.7532V24.8895V25.2895H70.1172H73.9083Z" fill="#F1B823" stroke="#A37910" stroke-width="0.8"/>
<path d="M8.25 107.438V92.9375C8.25 92.5894 8.38828 92.2556 8.63442 92.0094C8.88056 91.7633 9.2144 91.625 9.5625 91.625H23.2V108.75H9.5625C9.2144 108.75 8.88056 108.612 8.63442 108.366C8.38828 108.119 8.25 107.786 8.25 107.438Z" fill="#41A143" stroke="#18550E"/>
<path d="M93.7998 108.75V91.625H107.437C107.785 91.625 108.119 91.7633 108.365 92.0094C108.612 92.2556 108.75 92.5894 108.75 92.9375V107.438C108.75 107.786 108.612 108.119 108.365 108.366C108.119 108.612 107.785 108.75 107.437 108.75H93.7998Z" fill="#41A143" stroke="#18550E"/>
<path d="M27.8252 107.438V76.625C27.8252 76.2769 27.9635 75.9431 28.2096 75.6969C28.4558 75.4508 28.7896 75.3125 29.1377 75.3125H42.7752V108.75H29.1377C28.7896 108.75 28.4558 108.612 28.2096 108.366C27.9635 108.119 27.8252 107.786 27.8252 107.438Z" fill="#41A143" stroke="#18550E"/>
<path d="M74.2251 108.75V75.3125H87.8626C88.2107 75.3125 88.5445 75.4508 88.7907 75.6969C89.0368 75.9431 89.1751 76.2769 89.1751 76.625V107.438C89.1751 107.786 89.0368 108.119 88.7907 108.366C88.5445 108.612 88.2107 108.75 87.8626 108.75H74.2251Z" fill="#41A143" stroke="#18550E"/>
</svg>
