<svg width="24" height="24" viewBox="0 0 24 24" fill="none" xmlns="http://www.w3.org/2000/svg">
<path d="M0.750061 9.75001C0.750061 9.13126 0.970561 8.60138 1.41156 8.16038C1.85181 7.72013 2.38131 7.5 3.00006 7.5H6.37507V5.25C6.37507 4.63125 6.59557 4.10175 7.03657 3.6615C7.47682 3.2205 8.00632 3 8.62507 3H15.3751C15.9938 3 16.5237 3.2205 16.9647 3.6615C17.405 4.10175 17.6251 4.63125 17.6251 5.25V7.5H21.0001C21.6188 7.5 22.1487 7.72013 22.5897 8.16038C23.03 8.60138 23.2501 9.13126 23.2501 9.75001V14.25H18.7501V13.125C18.7501 12.8063 18.6421 12.5389 18.4261 12.3229C18.2108 12.1076 17.9438 12 17.6251 12C17.3063 12 17.0393 12.1076 16.8241 12.3229C16.6081 12.5389 16.5001 12.8063 16.5001 13.125V14.25H7.50007V13.125C7.50007 12.8063 7.39244 12.5389 7.17719 12.3229C6.96119 12.1076 6.69382 12 6.37507 12C6.05632 12 5.78894 12.1076 5.57294 12.3229C5.35769 12.5389 5.25006 12.8063 5.25006 13.125V14.25H0.750061V9.75001ZM8.62507 7.5H15.3751V5.25H8.62507V7.5ZM3.00006 21C2.38131 21 1.85181 20.7799 1.41156 20.3396C0.970561 19.8986 0.750061 19.3688 0.750061 18.75V15.375H5.25006C5.25006 15.6938 5.35769 15.9608 5.57294 16.176C5.78894 16.392 6.05632 16.5 6.37507 16.5C6.69382 16.5 6.96119 16.392 7.17719 16.176C7.39244 15.9608 7.50007 15.6938 7.50007 15.375H16.5001C16.5001 15.6938 16.6081 15.9608 16.8241 16.176C17.0393 16.392 17.3063 16.5 17.6251 16.5C17.9438 16.5 18.2108 16.392 18.4261 16.176C18.6421 15.9608 18.7501 15.6938 18.7501 15.375H23.2501V18.75C23.2501 19.3688 23.03 19.8986 22.5897 20.3396C22.1487 20.7799 21.6188 21 21.0001 21H3.00006Z" fill="white"/>
</svg>
