<svg width="24" height="24" viewBox="0 0 24 24" fill="none" xmlns="http://www.w3.org/2000/svg">
<g clip-path="url(#clip0_427_23)">
<path d="M12 1.5C5.36812 1.5 1.24586e-10 6.867 1.24586e-10 13.5V15.75C-3.58959e-06 16.0286 0.0775659 16.3016 0.224016 16.5386C0.370467 16.7756 0.580012 16.9671 0.829172 17.0917L1.50337 17.4287C1.59764 20.2455 3.91036 22.5 6.75 22.5H7.875C8.49633 22.5 9 21.9963 9 21.375V13.125C9 12.5037 8.49633 12 7.875 12H6.75C5.28084 12 3.95292 12.6037 3 13.5763V13.5C3 8.53739 7.03739 4.5 12 4.5C16.9626 4.5 21 8.53739 21 13.5V13.5763C20.0471 12.6037 18.7192 12 17.25 12H16.125C15.5037 12 15 12.5037 15 13.125V21.375C15 21.9963 15.5037 22.5 16.125 22.5H17.25C20.0896 22.5 22.4024 20.2454 22.4966 17.4287L23.1708 17.0917C23.4199 16.9671 23.6295 16.7756 23.776 16.5386C23.9224 16.3016 24 16.0286 24 15.75V13.5C24 6.86817 18.633 1.5 12 1.5Z" fill="white"/>
</g>
<defs>
<clipPath id="clip0_427_23">
<rect width="24" height="24" fill="white"/>
</clipPath>
</defs>
</svg>
